<svg xmlns="http://www.w3.org/2000/svg" viewBox="0 0 64 64" aria-hidden="true"><g fill="none" stroke="currentColor" stroke-width="3.1" stroke-linecap="round"><path d="M26.64 36.50V30.50A3.36 4.20 0 0 1 33.36 30.50V33.00"/><path d="M22.80 43.50V30.50A7.20 9.00 0 0 1 37.20 30.50V34.50"/><path d="M18.96 48.00V30.50A11.04 13.80 0 0 1 41.04 30.50V33.50"/><path d="M15.12 44.50V30.50A14.88 18.60 0 0 1 44.88 30.50"/></g><g fill="currentColor"><rect x="32.16" y="36.40" width="2.40" height="2.40" rx="0.45" opacity="0.90"/><rect x="35.90" y="37.80" width="2.60" height="2.60" rx="0.45" opacity="0.95"/><rect x="36.20" y="42.50" width="2.00" height="2.00" rx="0.45" opacity="0.60"/><rect x="39.64" y="36.70" width="2.80" height="2.80" rx="0.45" opacity="0.95"/><rect x="39.89" y="41.55" width="2.30" height="2.30" rx="0.45" opacity="0.70"/><rect x="40.14" y="46.00" width="1.80" height="1.80" rx="0.45" opacity="0.45"/><rect x="43.38" y="33.20" width="3.00" height="3.00" rx="0.45" opacity="1.00"/><rect x="43.58" y="38.00" width="2.60" height="2.60" rx="0.45" opacity="0.80"/><rect x="43.83" y="42.65" width="2.10" height="2.10" rx="0.45" opacity="0.55"/><rect x="44.08" y="46.90" width="1.60" height="1.60" rx="0.45" opacity="0.35"/><rect x="48.58" y="36.60" width="1.80" height="1.80" rx="0.45" opacity="0.50"/><rect x="52.33" y="43.25" width="1.50" height="1.50" rx="0.45" opacity="0.35"/><rect x="48.23" y="49.35" width="1.30" height="1.30" rx="0.45" opacity="0.25"/></g></svg>
